G04 EAGLE Gerber RS-274X export*
G75*
%MOMM*%
%FSLAX34Y34*%
%LPD*%
%IN*%
%IPPOS*%
%AMOC8*
5,1,8,0,0,1.08239X$1,22.5*%
G01*
%ADD10C,0.254000*%


D10*
X0Y0D02*
X319600Y0D01*
X319600Y685700D01*
X0Y685700D01*
X0Y0D01*
X245110Y644620D02*
X245039Y643541D01*
X244898Y642469D01*
X244687Y641409D01*
X244408Y640365D01*
X244060Y639341D01*
X243646Y638343D01*
X243168Y637373D01*
X242628Y636437D01*
X242027Y635538D01*
X241369Y634681D01*
X240657Y633868D01*
X239892Y633104D01*
X239079Y632391D01*
X238222Y631733D01*
X237323Y631132D01*
X236387Y630592D01*
X235417Y630114D01*
X234419Y629700D01*
X233395Y629352D01*
X232351Y629073D01*
X231291Y628862D01*
X230219Y628721D01*
X229140Y628650D01*
X228060Y628650D01*
X226981Y628721D01*
X225909Y628862D01*
X224849Y629073D01*
X223805Y629352D01*
X222781Y629700D01*
X221783Y630114D01*
X220813Y630592D01*
X219877Y631132D01*
X218978Y631733D01*
X218121Y632391D01*
X217308Y633104D01*
X216544Y633868D01*
X215831Y634681D01*
X215173Y635538D01*
X214572Y636437D01*
X214032Y637373D01*
X213554Y638343D01*
X213140Y639341D01*
X212792Y640365D01*
X212513Y641409D01*
X212302Y642469D01*
X212161Y643541D01*
X212090Y644620D01*
X212090Y645700D01*
X212161Y646779D01*
X212302Y647851D01*
X212513Y648911D01*
X212792Y649955D01*
X213140Y650979D01*
X213554Y651977D01*
X214032Y652947D01*
X214572Y653883D01*
X215173Y654782D01*
X215831Y655639D01*
X216544Y656452D01*
X217308Y657217D01*
X218121Y657929D01*
X218978Y658587D01*
X219877Y659188D01*
X220813Y659728D01*
X221783Y660206D01*
X222781Y660620D01*
X223805Y660968D01*
X224849Y661247D01*
X225909Y661458D01*
X226981Y661599D01*
X228060Y661670D01*
X229140Y661670D01*
X230219Y661599D01*
X231291Y661458D01*
X232351Y661247D01*
X233395Y660968D01*
X234419Y660620D01*
X235417Y660206D01*
X236387Y659728D01*
X237323Y659188D01*
X238222Y658587D01*
X239079Y657929D01*
X239892Y657217D01*
X240657Y656452D01*
X241369Y655639D01*
X242027Y654782D01*
X242628Y653883D01*
X243168Y652947D01*
X243646Y651977D01*
X244060Y650979D01*
X244408Y649955D01*
X244687Y648911D01*
X244898Y647851D01*
X245039Y646779D01*
X245110Y645700D01*
X245110Y644620D01*
M02*
