G04 EAGLE Gerber RS-274X export*
G75*
%MOMM*%
%FSLAX34Y34*%
%LPD*%
%INSilkscreen Bottom*%
%IPPOS*%
%AMOC8*
5,1,8,0,0,1.08239X$1,22.5*%
G01*
%ADD10R,0.144775X0.036319*%
%ADD11R,0.218438X0.036319*%
%ADD12R,0.289556X0.036319*%
%ADD13R,0.363219X0.036069*%
%ADD14R,0.434338X0.036319*%
%ADD15R,0.508000X0.036319*%
%ADD16R,0.581656X0.036319*%
%ADD17R,0.652775X0.036319*%
%ADD18R,0.726438X0.036319*%
%ADD19R,0.797556X0.036319*%
%ADD20R,0.871219X0.036069*%
%ADD21R,0.942338X0.036319*%
%ADD22R,1.016000X0.036319*%
%ADD23R,1.089656X0.036319*%
%ADD24R,1.160775X0.036319*%
%ADD25R,1.234438X0.036319*%
%ADD26R,1.305556X0.036319*%
%ADD27R,1.379219X0.036069*%
%ADD28R,1.450338X0.036319*%
%ADD29R,1.524000X0.036319*%
%ADD30R,1.597656X0.036319*%
%ADD31R,1.633219X0.036319*%
%ADD32R,1.671319X0.036319*%
%ADD33R,1.706875X0.036319*%
%ADD34R,1.706875X0.036069*%
%ADD35R,0.035556X0.036319*%
%ADD36R,0.071119X0.036319*%
%ADD37R,0.106681X0.036319*%
%ADD38R,0.144781X0.036069*%
%ADD39R,0.180338X0.036319*%
%ADD40R,0.215900X0.036319*%
%ADD41R,0.109219X0.036319*%
%ADD42R,0.254000X0.036319*%
%ADD43R,0.144781X0.036319*%
%ADD44R,0.325119X0.036319*%
%ADD45R,0.360681X0.036319*%
%ADD46R,0.398781X0.036069*%
%ADD47R,0.289563X0.036069*%
%ADD48R,0.469900X0.036319*%
%ADD49R,0.363219X0.036319*%
%ADD50R,0.398781X0.036319*%
%ADD51R,0.543556X0.036319*%
%ADD52R,0.579119X0.036319*%
%ADD53R,0.472438X0.036319*%
%ADD54R,0.614681X0.036319*%
%ADD55R,0.652781X0.036069*%
%ADD56R,0.543563X0.036069*%
%ADD57R,0.688338X0.036319*%
%ADD58R,0.723900X0.036319*%
%ADD59R,0.617219X0.036319*%
%ADD60R,0.762000X0.036319*%
%ADD61R,0.652781X0.036319*%
%ADD62R,0.833119X0.036319*%
%ADD63R,0.868681X0.036319*%
%ADD64R,0.906781X0.036069*%
%ADD65R,0.797563X0.036069*%
%ADD66R,0.977900X0.036319*%
%ADD67R,0.871219X0.036319*%
%ADD68R,0.906781X0.036319*%
%ADD69R,1.051556X0.036319*%
%ADD70R,1.087119X0.036319*%
%ADD71R,0.980438X0.036319*%
%ADD72R,1.122681X0.036319*%
%ADD73R,1.160781X0.036069*%
%ADD74R,1.051562X0.036069*%
%ADD75R,1.196338X0.036319*%
%ADD76R,1.231900X0.036319*%
%ADD77R,1.125219X0.036319*%
%ADD78R,1.270000X0.036319*%
%ADD79R,1.160781X0.036319*%
%ADD80R,1.270000X0.036069*%
%ADD81R,3.736338X0.036319*%
%ADD82R,3.774438X0.036319*%
%ADD83R,3.810000X0.036319*%
%ADD84R,3.845563X0.036319*%
%ADD85R,3.881119X0.036069*%
%ADD86R,3.919219X0.036319*%
%ADD87R,3.954781X0.036319*%
%ADD88R,3.990338X0.036319*%
%ADD89R,4.028437X0.036319*%
%ADD90R,4.064000X0.036319*%
%ADD91R,4.099563X0.036319*%
%ADD92R,4.135119X0.036069*%
%ADD93R,4.173219X0.036319*%
%ADD94R,4.208781X0.036319*%
%ADD95R,4.244338X0.036319*%
%ADD96R,4.282438X0.036319*%
%ADD97R,4.318000X0.036319*%
%ADD98R,4.353562X0.036069*%
%ADD99R,4.389119X0.036319*%
%ADD100R,4.427219X0.036319*%
%ADD101R,4.462781X0.036319*%
%ADD102R,4.498337X0.036319*%
%ADD103R,4.536437X0.036319*%
%ADD104R,4.572000X0.036069*%
%ADD105R,4.607563X0.036319*%
%ADD106R,4.643119X0.036319*%
%ADD107R,4.681219X0.036319*%
%ADD108R,4.716781X0.036319*%
%ADD109R,4.752338X0.036319*%
%ADD110R,4.790438X0.036069*%
%ADD111R,7.294875X0.036319*%
%ADD112R,4.790438X0.036319*%
%ADD113R,7.256775X0.036319*%
%ADD114R,7.221219X0.036319*%
%ADD115R,7.185656X0.036319*%
%ADD116R,7.147556X0.036319*%
%ADD117R,7.112000X0.036319*%
%ADD118R,7.076437X0.036069*%
%ADD119R,7.040875X0.036319*%
%ADD120R,7.002775X0.036319*%
%ADD121R,6.967219X0.036319*%
%ADD122R,6.931656X0.036319*%
%ADD123R,6.893556X0.036319*%
%ADD124R,6.858000X0.036319*%
%ADD125R,6.822438X0.036069*%
%ADD126R,6.786875X0.036319*%
%ADD127R,6.748775X0.036319*%
%ADD128R,6.713219X0.036319*%
%ADD129R,6.677656X0.036319*%
%ADD130R,6.639556X0.036319*%
%ADD131R,6.604000X0.036319*%
%ADD132R,6.568437X0.036069*%
%ADD133R,6.532875X0.036319*%
%ADD134R,6.459219X0.036319*%
%ADD135R,6.423656X0.036319*%
%ADD136R,6.350000X0.036319*%
%ADD137R,6.314438X0.036319*%
%ADD138R,6.278875X0.036069*%
%ADD139R,6.240775X0.036319*%
%ADD140R,6.205219X0.036319*%
%ADD141R,6.169656X0.036319*%
%ADD142R,6.131556X0.036319*%
%ADD143R,6.096000X0.036319*%
%ADD144R,6.060437X0.036319*%
%ADD145R,5.989319X0.036069*%
%ADD146C,0.101600*%


D10*
X229551Y519404D03*
D11*
X229564Y519767D03*
D12*
X229564Y520131D03*
D13*
X229551Y520493D03*
D14*
X229551Y520854D03*
D15*
X229564Y521218D03*
D16*
X229551Y521581D03*
D17*
X229551Y521944D03*
D18*
X229564Y522307D03*
D19*
X229564Y522671D03*
D20*
X229551Y523033D03*
D21*
X229551Y523394D03*
D22*
X229564Y523758D03*
D23*
X229551Y524121D03*
D24*
X229551Y524484D03*
D25*
X229564Y524847D03*
D26*
X229564Y525211D03*
D27*
X229551Y525573D03*
D28*
X229551Y525934D03*
D29*
X229564Y526298D03*
D30*
X229551Y526661D03*
D31*
X229729Y527024D03*
D32*
X229920Y527387D03*
D33*
X230097Y527751D03*
D34*
X230097Y528113D03*
D33*
X230097Y528474D03*
X230097Y528838D03*
X230097Y529201D03*
X230097Y529564D03*
X230097Y529927D03*
X230097Y530291D03*
D34*
X230097Y530653D03*
D33*
X230097Y531014D03*
X230097Y531378D03*
X230097Y531741D03*
D35*
X216305Y532104D03*
D33*
X230097Y532104D03*
D36*
X216127Y532467D03*
D33*
X230097Y532467D03*
D37*
X215950Y532831D03*
D33*
X230097Y532831D03*
D38*
X215759Y533193D03*
D34*
X230097Y533193D03*
D39*
X215581Y533554D03*
D33*
X230097Y533554D03*
D36*
X244067Y533554D03*
D40*
X215403Y533918D03*
D33*
X230097Y533918D03*
D41*
X244258Y533918D03*
D42*
X215213Y534281D03*
D33*
X230097Y534281D03*
D43*
X244436Y534281D03*
D12*
X215035Y534644D03*
D33*
X230097Y534644D03*
D39*
X244613Y534644D03*
D44*
X214857Y535007D03*
D33*
X230097Y535007D03*
D11*
X244804Y535007D03*
D45*
X214680Y535371D03*
D33*
X230097Y535371D03*
D42*
X244982Y535371D03*
D46*
X214489Y535733D03*
D34*
X230097Y535733D03*
D47*
X245160Y535733D03*
D14*
X214311Y536094D03*
D33*
X230097Y536094D03*
D44*
X245337Y536094D03*
D48*
X214133Y536458D03*
D33*
X230097Y536458D03*
D49*
X245528Y536458D03*
D15*
X213943Y536821D03*
D33*
X230097Y536821D03*
D50*
X245706Y536821D03*
D51*
X213765Y537184D03*
D33*
X230097Y537184D03*
D14*
X245883Y537184D03*
D52*
X213587Y537547D03*
D33*
X230097Y537547D03*
D53*
X246074Y537547D03*
D54*
X213410Y537911D03*
D33*
X230097Y537911D03*
D15*
X246252Y537911D03*
D55*
X213219Y538273D03*
D34*
X230097Y538273D03*
D56*
X246430Y538273D03*
D57*
X213041Y538634D03*
D33*
X230097Y538634D03*
D52*
X246607Y538634D03*
D58*
X212863Y538998D03*
D33*
X230097Y538998D03*
D59*
X246798Y538998D03*
D60*
X212673Y539361D03*
D33*
X230097Y539361D03*
D61*
X246976Y539361D03*
D19*
X212495Y539724D03*
D33*
X230097Y539724D03*
D57*
X247153Y539724D03*
D62*
X212317Y540087D03*
D33*
X230097Y540087D03*
D18*
X247344Y540087D03*
D63*
X212140Y540451D03*
D33*
X230097Y540451D03*
D60*
X247522Y540451D03*
D64*
X211949Y540813D03*
D34*
X230097Y540813D03*
D65*
X247700Y540813D03*
D21*
X211771Y541174D03*
D33*
X230097Y541174D03*
D62*
X247877Y541174D03*
D66*
X211593Y541538D03*
D33*
X230097Y541538D03*
D67*
X248068Y541538D03*
D22*
X211403Y541901D03*
D33*
X230097Y541901D03*
D68*
X248246Y541901D03*
D69*
X211225Y542264D03*
D33*
X230097Y542264D03*
D21*
X248423Y542264D03*
D70*
X211047Y542627D03*
D33*
X230097Y542627D03*
D71*
X248614Y542627D03*
D72*
X210870Y542991D03*
D33*
X230097Y542991D03*
D22*
X248792Y542991D03*
D73*
X210679Y543353D03*
D34*
X230097Y543353D03*
D74*
X248970Y543353D03*
D75*
X210501Y543714D03*
D33*
X230097Y543714D03*
D70*
X249147Y543714D03*
D76*
X210323Y544078D03*
D33*
X230097Y544078D03*
D77*
X249338Y544078D03*
D78*
X210133Y544441D03*
D33*
X230097Y544441D03*
D79*
X249516Y544441D03*
D78*
X210133Y544804D03*
D33*
X230097Y544804D03*
D75*
X249693Y544804D03*
D78*
X210133Y545167D03*
D33*
X230097Y545167D03*
D25*
X249884Y545167D03*
D78*
X210133Y545531D03*
D33*
X230097Y545531D03*
D78*
X250062Y545531D03*
D80*
X210133Y545893D03*
D34*
X230097Y545893D03*
D80*
X250062Y545893D03*
D78*
X210133Y546254D03*
D33*
X230097Y546254D03*
D78*
X250062Y546254D03*
X210133Y546618D03*
D33*
X230097Y546618D03*
D78*
X250062Y546618D03*
X210133Y546981D03*
D33*
X230097Y546981D03*
D78*
X250062Y546981D03*
X210133Y547344D03*
D33*
X230097Y547344D03*
D78*
X250062Y547344D03*
X210133Y547707D03*
D33*
X230097Y547707D03*
D78*
X250062Y547707D03*
X210133Y548071D03*
D33*
X230097Y548071D03*
D78*
X250062Y548071D03*
D80*
X210133Y548433D03*
D34*
X230097Y548433D03*
D80*
X250062Y548433D03*
D78*
X210133Y548794D03*
D33*
X230097Y548794D03*
D78*
X250062Y548794D03*
X210133Y549158D03*
D33*
X230097Y549158D03*
D78*
X250062Y549158D03*
X210133Y549521D03*
D33*
X230097Y549521D03*
D78*
X250062Y549521D03*
X210133Y549884D03*
D33*
X230097Y549884D03*
D78*
X250062Y549884D03*
X210133Y550247D03*
D33*
X230097Y550247D03*
D78*
X250062Y550247D03*
X210133Y550611D03*
D33*
X230097Y550611D03*
D78*
X250062Y550611D03*
D80*
X210133Y550973D03*
D34*
X230097Y550973D03*
D80*
X250062Y550973D03*
D78*
X210133Y551334D03*
D33*
X230097Y551334D03*
D78*
X250062Y551334D03*
X210133Y551698D03*
D33*
X230097Y551698D03*
D78*
X250062Y551698D03*
X210133Y552061D03*
D33*
X230097Y552061D03*
D78*
X250062Y552061D03*
X210133Y552424D03*
D33*
X230097Y552424D03*
D78*
X250062Y552424D03*
X210133Y552787D03*
D33*
X230097Y552787D03*
D78*
X250062Y552787D03*
X210133Y553151D03*
D33*
X230097Y553151D03*
D78*
X250062Y553151D03*
D80*
X210133Y553513D03*
D34*
X230097Y553513D03*
D80*
X250062Y553513D03*
D78*
X210133Y553874D03*
D33*
X230097Y553874D03*
D78*
X250062Y553874D03*
X210133Y554238D03*
D33*
X230097Y554238D03*
D78*
X250062Y554238D03*
X210133Y554601D03*
D33*
X230097Y554601D03*
D78*
X250062Y554601D03*
X210133Y554964D03*
D33*
X230097Y554964D03*
D78*
X250062Y554964D03*
X210133Y555327D03*
D33*
X230097Y555327D03*
D78*
X250062Y555327D03*
X210133Y555691D03*
D33*
X230097Y555691D03*
D78*
X250062Y555691D03*
D80*
X210133Y556053D03*
D34*
X230097Y556053D03*
D80*
X250062Y556053D03*
D78*
X210133Y556414D03*
D33*
X230097Y556414D03*
D78*
X250062Y556414D03*
X210133Y556778D03*
D33*
X230097Y556778D03*
D78*
X250062Y556778D03*
X210133Y557141D03*
D33*
X230097Y557141D03*
D78*
X250062Y557141D03*
X210133Y557504D03*
D33*
X230097Y557504D03*
D78*
X250062Y557504D03*
X210133Y557867D03*
D33*
X230097Y557867D03*
D78*
X250062Y557867D03*
X210133Y558231D03*
D33*
X230097Y558231D03*
D78*
X250062Y558231D03*
D80*
X210133Y558593D03*
D34*
X230097Y558593D03*
D80*
X250062Y558593D03*
D78*
X210133Y558954D03*
D33*
X230097Y558954D03*
D78*
X250062Y558954D03*
X210133Y559318D03*
D33*
X230097Y559318D03*
D78*
X250062Y559318D03*
X210133Y559681D03*
D33*
X230097Y559681D03*
D78*
X250062Y559681D03*
X210133Y560044D03*
D33*
X230097Y560044D03*
D78*
X250062Y560044D03*
X210133Y560407D03*
D33*
X230097Y560407D03*
D78*
X250062Y560407D03*
X210133Y560771D03*
D33*
X230097Y560771D03*
D78*
X250062Y560771D03*
D80*
X210133Y561133D03*
D34*
X230097Y561133D03*
D80*
X250062Y561133D03*
D78*
X210133Y561494D03*
D33*
X230097Y561494D03*
D78*
X250062Y561494D03*
X210133Y561858D03*
D33*
X230097Y561858D03*
D78*
X250062Y561858D03*
X210133Y562221D03*
D33*
X230097Y562221D03*
D78*
X250062Y562221D03*
X210133Y562584D03*
D33*
X230097Y562584D03*
D78*
X250062Y562584D03*
X210133Y562947D03*
D33*
X230097Y562947D03*
D78*
X250062Y562947D03*
X210133Y563311D03*
D33*
X230097Y563311D03*
D78*
X250062Y563311D03*
D80*
X210133Y563673D03*
D34*
X230097Y563673D03*
D80*
X250062Y563673D03*
D78*
X210133Y564034D03*
D33*
X230097Y564034D03*
D78*
X250062Y564034D03*
X210133Y564398D03*
D33*
X230097Y564398D03*
D78*
X250062Y564398D03*
X210133Y564761D03*
D33*
X230097Y564761D03*
D78*
X250062Y564761D03*
X210133Y565124D03*
D33*
X230097Y565124D03*
D78*
X250062Y565124D03*
X210133Y565487D03*
D33*
X230097Y565487D03*
D78*
X250062Y565487D03*
X210133Y565851D03*
D33*
X230097Y565851D03*
D78*
X250062Y565851D03*
D80*
X210133Y566213D03*
D34*
X230097Y566213D03*
D80*
X250062Y566213D03*
D78*
X210133Y566574D03*
D33*
X230097Y566574D03*
D78*
X250062Y566574D03*
X210133Y566938D03*
D33*
X230097Y566938D03*
D78*
X250062Y566938D03*
X210133Y567301D03*
D33*
X230097Y567301D03*
D78*
X250062Y567301D03*
X210133Y567664D03*
D33*
X230097Y567664D03*
D78*
X250062Y567664D03*
X210133Y568027D03*
D33*
X230097Y568027D03*
D78*
X250062Y568027D03*
X210133Y568391D03*
D33*
X230097Y568391D03*
D78*
X250062Y568391D03*
D80*
X210133Y568753D03*
D34*
X230097Y568753D03*
D80*
X250062Y568753D03*
D78*
X210133Y569114D03*
D33*
X230097Y569114D03*
D78*
X250062Y569114D03*
X210133Y569478D03*
D33*
X230097Y569478D03*
D78*
X250062Y569478D03*
X210133Y569841D03*
D33*
X230097Y569841D03*
D78*
X250062Y569841D03*
X210133Y570204D03*
D33*
X230097Y570204D03*
D78*
X250062Y570204D03*
X210133Y570567D03*
D33*
X230097Y570567D03*
D78*
X250062Y570567D03*
X210133Y570931D03*
D33*
X230097Y570931D03*
D78*
X250062Y570931D03*
D80*
X210133Y571293D03*
D34*
X230097Y571293D03*
D80*
X250062Y571293D03*
D78*
X210133Y571654D03*
D33*
X230097Y571654D03*
D78*
X250062Y571654D03*
X210133Y572018D03*
D33*
X230097Y572018D03*
D78*
X250062Y572018D03*
X210133Y572381D03*
D33*
X230097Y572381D03*
D78*
X250062Y572381D03*
X210133Y572744D03*
D33*
X230097Y572744D03*
D78*
X250062Y572744D03*
X210133Y573107D03*
D33*
X230097Y573107D03*
D78*
X250062Y573107D03*
X210133Y573471D03*
D33*
X230097Y573471D03*
D78*
X250062Y573471D03*
D80*
X210133Y573833D03*
D34*
X230097Y573833D03*
D80*
X250062Y573833D03*
D78*
X210133Y574194D03*
D33*
X230097Y574194D03*
D78*
X250062Y574194D03*
X210133Y574558D03*
D33*
X230097Y574558D03*
D78*
X250062Y574558D03*
X210133Y574921D03*
D33*
X230097Y574921D03*
D78*
X250062Y574921D03*
X210133Y575284D03*
D33*
X230097Y575284D03*
D78*
X250062Y575284D03*
X210133Y575647D03*
D33*
X230097Y575647D03*
D78*
X250062Y575647D03*
X210133Y576011D03*
D33*
X230097Y576011D03*
D78*
X250062Y576011D03*
D80*
X210133Y576373D03*
D34*
X230097Y576373D03*
D80*
X250062Y576373D03*
D78*
X210133Y576734D03*
D33*
X230097Y576734D03*
D78*
X250062Y576734D03*
X210133Y577098D03*
D33*
X230097Y577098D03*
D78*
X250062Y577098D03*
X210133Y577461D03*
D33*
X230097Y577461D03*
D78*
X250062Y577461D03*
X210133Y577824D03*
D33*
X230097Y577824D03*
D78*
X250062Y577824D03*
X210133Y578187D03*
D33*
X230097Y578187D03*
D78*
X250062Y578187D03*
X210133Y578551D03*
D33*
X230097Y578551D03*
D78*
X250062Y578551D03*
D80*
X210133Y578913D03*
D34*
X230097Y578913D03*
D80*
X250062Y578913D03*
D78*
X210133Y579274D03*
D33*
X230097Y579274D03*
D78*
X250062Y579274D03*
X210133Y579638D03*
D33*
X230097Y579638D03*
D81*
X262393Y579638D03*
D78*
X210133Y580001D03*
D33*
X230097Y580001D03*
D82*
X262584Y580001D03*
D78*
X210133Y580364D03*
D33*
X230097Y580364D03*
D83*
X262762Y580364D03*
D78*
X210133Y580727D03*
D33*
X230097Y580727D03*
D83*
X262762Y580727D03*
D78*
X210133Y581091D03*
D33*
X230097Y581091D03*
D84*
X262940Y581091D03*
D80*
X210133Y581453D03*
D34*
X230097Y581453D03*
D85*
X263117Y581453D03*
D78*
X210133Y581814D03*
D33*
X230097Y581814D03*
D86*
X263308Y581814D03*
D78*
X210133Y582178D03*
D33*
X230097Y582178D03*
D87*
X263486Y582178D03*
D78*
X210133Y582541D03*
D33*
X230097Y582541D03*
D88*
X263663Y582541D03*
D78*
X210133Y582904D03*
D33*
X230097Y582904D03*
D89*
X263854Y582904D03*
D78*
X210133Y583267D03*
D33*
X230097Y583267D03*
D90*
X264032Y583267D03*
D78*
X210133Y583631D03*
D33*
X230097Y583631D03*
D91*
X264210Y583631D03*
D80*
X210133Y583993D03*
D34*
X230097Y583993D03*
D92*
X264387Y583993D03*
D78*
X210133Y584354D03*
D33*
X230097Y584354D03*
D93*
X264578Y584354D03*
D78*
X210133Y584718D03*
D33*
X230097Y584718D03*
D94*
X264756Y584718D03*
D78*
X210133Y585081D03*
D33*
X230097Y585081D03*
D94*
X264756Y585081D03*
D78*
X210133Y585444D03*
D33*
X230097Y585444D03*
D95*
X264933Y585444D03*
D33*
X230097Y585807D03*
D96*
X265124Y585807D03*
D33*
X230097Y586171D03*
D97*
X265302Y586171D03*
D34*
X230097Y586533D03*
D98*
X265480Y586533D03*
D33*
X230097Y586894D03*
D99*
X265657Y586894D03*
D33*
X230097Y587258D03*
D100*
X265848Y587258D03*
D33*
X230097Y587621D03*
D101*
X266026Y587621D03*
D33*
X230097Y587984D03*
D101*
X266026Y587984D03*
D33*
X230097Y588347D03*
D102*
X266203Y588347D03*
D33*
X230097Y588711D03*
D103*
X266394Y588711D03*
D34*
X230097Y589073D03*
D104*
X266572Y589073D03*
D33*
X230097Y589434D03*
D105*
X266750Y589434D03*
D33*
X230097Y589798D03*
D106*
X266927Y589798D03*
D33*
X230097Y590161D03*
D107*
X267118Y590161D03*
D33*
X230097Y590524D03*
D108*
X267296Y590524D03*
D33*
X230097Y590887D03*
D109*
X267473Y590887D03*
D33*
X230097Y591251D03*
D109*
X267473Y591251D03*
D34*
X230097Y591613D03*
D110*
X267664Y591613D03*
D111*
X202157Y591974D03*
D112*
X268020Y591974D03*
D113*
X202348Y592338D03*
D114*
X202526Y592701D03*
D115*
X202703Y593064D03*
D116*
X202894Y593427D03*
D117*
X203072Y593791D03*
D118*
X203250Y594153D03*
D119*
X203427Y594514D03*
D120*
X203618Y594878D03*
D121*
X203796Y595241D03*
D122*
X203973Y595604D03*
D123*
X204164Y595967D03*
D124*
X204342Y596331D03*
D125*
X204520Y596693D03*
D126*
X204697Y597054D03*
D127*
X204888Y597418D03*
D128*
X205066Y597781D03*
D129*
X205243Y598144D03*
D130*
X205434Y598507D03*
D131*
X205612Y598871D03*
D132*
X205790Y599233D03*
D133*
X205967Y599594D03*
D134*
X206336Y599958D03*
D135*
X206513Y600321D03*
X206513Y600684D03*
D136*
X206882Y601047D03*
D137*
X207060Y601411D03*
D138*
X207237Y601773D03*
D139*
X207428Y602134D03*
D140*
X207606Y602498D03*
D141*
X207783Y602861D03*
D142*
X207974Y603224D03*
D143*
X208152Y603587D03*
D144*
X208330Y603951D03*
D145*
X208330Y604313D03*
D146*
X191825Y568691D02*
X191825Y555483D01*
X195494Y568691D02*
X188156Y568691D01*
X183238Y568691D02*
X183238Y555483D01*
X183238Y564288D02*
X179570Y564288D01*
X179477Y564286D01*
X179383Y564280D01*
X179290Y564270D01*
X179198Y564256D01*
X179106Y564239D01*
X179015Y564217D01*
X178926Y564192D01*
X178837Y564162D01*
X178749Y564129D01*
X178663Y564093D01*
X178579Y564052D01*
X178497Y564009D01*
X178416Y563961D01*
X178338Y563911D01*
X178261Y563857D01*
X178187Y563799D01*
X178116Y563739D01*
X178047Y563676D01*
X177981Y563610D01*
X177918Y563541D01*
X177858Y563470D01*
X177800Y563396D01*
X177746Y563320D01*
X177696Y563241D01*
X177649Y563160D01*
X177605Y563078D01*
X177564Y562994D01*
X177528Y562908D01*
X177495Y562820D01*
X177465Y562732D01*
X177440Y562642D01*
X177418Y562551D01*
X177401Y562459D01*
X177387Y562367D01*
X177377Y562274D01*
X177371Y562180D01*
X177369Y562087D01*
X177368Y562087D02*
X177368Y555483D01*
X169516Y555483D02*
X165847Y555483D01*
X169516Y555483D02*
X169607Y555485D01*
X169698Y555491D01*
X169788Y555500D01*
X169878Y555513D01*
X169968Y555530D01*
X170056Y555550D01*
X170144Y555575D01*
X170231Y555602D01*
X170316Y555634D01*
X170400Y555668D01*
X170483Y555707D01*
X170564Y555748D01*
X170643Y555793D01*
X170720Y555841D01*
X170795Y555893D01*
X170868Y555947D01*
X170939Y556004D01*
X171007Y556065D01*
X171072Y556128D01*
X171135Y556193D01*
X171196Y556261D01*
X171253Y556332D01*
X171307Y556405D01*
X171359Y556480D01*
X171407Y556557D01*
X171452Y556636D01*
X171493Y556717D01*
X171532Y556800D01*
X171566Y556884D01*
X171598Y556969D01*
X171625Y557056D01*
X171650Y557144D01*
X171670Y557232D01*
X171687Y557322D01*
X171700Y557412D01*
X171709Y557502D01*
X171715Y557593D01*
X171717Y557684D01*
X171717Y561353D01*
X171715Y561460D01*
X171709Y561567D01*
X171699Y561674D01*
X171686Y561780D01*
X171668Y561886D01*
X171647Y561991D01*
X171622Y562095D01*
X171593Y562199D01*
X171560Y562301D01*
X171523Y562401D01*
X171483Y562501D01*
X171439Y562599D01*
X171392Y562695D01*
X171341Y562789D01*
X171287Y562882D01*
X171230Y562972D01*
X171169Y563061D01*
X171105Y563147D01*
X171038Y563230D01*
X170968Y563312D01*
X170895Y563390D01*
X170819Y563466D01*
X170741Y563539D01*
X170659Y563609D01*
X170576Y563676D01*
X170490Y563740D01*
X170401Y563801D01*
X170311Y563858D01*
X170218Y563912D01*
X170124Y563963D01*
X170028Y564010D01*
X169930Y564054D01*
X169830Y564094D01*
X169730Y564131D01*
X169628Y564164D01*
X169524Y564193D01*
X169420Y564218D01*
X169315Y564239D01*
X169209Y564257D01*
X169103Y564270D01*
X168996Y564280D01*
X168889Y564286D01*
X168782Y564288D01*
X168675Y564286D01*
X168568Y564280D01*
X168461Y564270D01*
X168355Y564257D01*
X168249Y564239D01*
X168144Y564218D01*
X168040Y564193D01*
X167936Y564164D01*
X167834Y564131D01*
X167734Y564094D01*
X167634Y564054D01*
X167536Y564010D01*
X167440Y563963D01*
X167346Y563912D01*
X167253Y563858D01*
X167163Y563801D01*
X167074Y563740D01*
X166988Y563676D01*
X166905Y563609D01*
X166823Y563539D01*
X166745Y563466D01*
X166669Y563390D01*
X166596Y563312D01*
X166526Y563230D01*
X166459Y563147D01*
X166395Y563061D01*
X166334Y562972D01*
X166277Y562882D01*
X166223Y562789D01*
X166172Y562695D01*
X166125Y562599D01*
X166081Y562501D01*
X166041Y562401D01*
X166004Y562301D01*
X165971Y562199D01*
X165942Y562095D01*
X165917Y561991D01*
X165896Y561886D01*
X165878Y561780D01*
X165865Y561674D01*
X165855Y561567D01*
X165849Y561460D01*
X165847Y561353D01*
X165847Y559886D01*
X171717Y559886D01*
X157687Y555483D02*
X157687Y568691D01*
X161356Y568691D02*
X154018Y568691D01*
X149101Y568691D02*
X149101Y555483D01*
X149101Y564288D02*
X145432Y564288D01*
X145339Y564286D01*
X145245Y564280D01*
X145152Y564270D01*
X145060Y564256D01*
X144968Y564239D01*
X144877Y564217D01*
X144788Y564192D01*
X144699Y564162D01*
X144611Y564129D01*
X144525Y564093D01*
X144441Y564052D01*
X144359Y564009D01*
X144278Y563961D01*
X144200Y563911D01*
X144123Y563857D01*
X144049Y563799D01*
X143978Y563739D01*
X143909Y563676D01*
X143843Y563610D01*
X143780Y563541D01*
X143720Y563470D01*
X143662Y563396D01*
X143608Y563320D01*
X143558Y563241D01*
X143511Y563160D01*
X143467Y563078D01*
X143426Y562994D01*
X143390Y562908D01*
X143357Y562820D01*
X143327Y562732D01*
X143302Y562642D01*
X143280Y562551D01*
X143263Y562459D01*
X143249Y562367D01*
X143239Y562274D01*
X143233Y562180D01*
X143231Y562087D01*
X143231Y555483D01*
X137631Y555483D02*
X137631Y564288D01*
X137998Y567957D02*
X137998Y568691D01*
X137265Y568691D01*
X137265Y567957D01*
X137998Y567957D01*
X132032Y564288D02*
X132032Y555483D01*
X132032Y564288D02*
X128363Y564288D01*
X128270Y564286D01*
X128176Y564280D01*
X128083Y564270D01*
X127991Y564256D01*
X127899Y564239D01*
X127808Y564217D01*
X127719Y564192D01*
X127630Y564162D01*
X127542Y564129D01*
X127456Y564093D01*
X127372Y564052D01*
X127290Y564009D01*
X127209Y563961D01*
X127131Y563911D01*
X127054Y563857D01*
X126980Y563799D01*
X126909Y563739D01*
X126840Y563676D01*
X126774Y563610D01*
X126711Y563541D01*
X126651Y563470D01*
X126593Y563396D01*
X126539Y563320D01*
X126489Y563241D01*
X126442Y563160D01*
X126398Y563078D01*
X126357Y562994D01*
X126321Y562908D01*
X126288Y562820D01*
X126258Y562732D01*
X126233Y562642D01*
X126211Y562551D01*
X126194Y562459D01*
X126180Y562367D01*
X126170Y562274D01*
X126164Y562180D01*
X126162Y562087D01*
X126162Y555483D01*
X119940Y555483D02*
X119940Y568691D01*
X114070Y564288D02*
X119940Y559886D01*
X117372Y561720D02*
X114070Y555483D01*
X108188Y555483D02*
X108188Y568691D01*
X109655Y555483D02*
X106720Y555483D01*
X106720Y568691D02*
X109655Y568691D01*
X101308Y564288D02*
X101308Y555483D01*
X101308Y564288D02*
X97639Y564288D01*
X97546Y564286D01*
X97452Y564280D01*
X97359Y564270D01*
X97267Y564256D01*
X97175Y564239D01*
X97084Y564217D01*
X96995Y564192D01*
X96906Y564162D01*
X96818Y564129D01*
X96732Y564093D01*
X96648Y564052D01*
X96566Y564009D01*
X96485Y563961D01*
X96407Y563911D01*
X96330Y563857D01*
X96256Y563799D01*
X96185Y563739D01*
X96116Y563676D01*
X96050Y563610D01*
X95987Y563541D01*
X95927Y563470D01*
X95869Y563396D01*
X95815Y563320D01*
X95765Y563241D01*
X95718Y563160D01*
X95674Y563078D01*
X95633Y562994D01*
X95597Y562908D01*
X95564Y562820D01*
X95534Y562732D01*
X95509Y562642D01*
X95487Y562551D01*
X95470Y562459D01*
X95456Y562367D01*
X95446Y562274D01*
X95440Y562180D01*
X95438Y562087D01*
X95438Y555483D01*
X83979Y555483D02*
X83979Y568691D01*
X83979Y555483D02*
X87648Y555483D01*
X87739Y555485D01*
X87830Y555491D01*
X87920Y555500D01*
X88010Y555513D01*
X88100Y555530D01*
X88188Y555550D01*
X88276Y555575D01*
X88363Y555602D01*
X88448Y555634D01*
X88532Y555668D01*
X88615Y555707D01*
X88696Y555748D01*
X88775Y555793D01*
X88852Y555841D01*
X88927Y555893D01*
X89000Y555947D01*
X89071Y556004D01*
X89139Y556065D01*
X89204Y556128D01*
X89267Y556193D01*
X89328Y556261D01*
X89385Y556332D01*
X89439Y556405D01*
X89491Y556480D01*
X89539Y556557D01*
X89584Y556636D01*
X89625Y556717D01*
X89664Y556800D01*
X89698Y556884D01*
X89730Y556969D01*
X89757Y557056D01*
X89782Y557144D01*
X89802Y557232D01*
X89819Y557322D01*
X89832Y557412D01*
X89841Y557502D01*
X89847Y557593D01*
X89849Y557684D01*
X89849Y562087D01*
X89847Y562178D01*
X89841Y562269D01*
X89832Y562359D01*
X89819Y562449D01*
X89802Y562539D01*
X89782Y562627D01*
X89757Y562715D01*
X89730Y562802D01*
X89698Y562887D01*
X89664Y562971D01*
X89625Y563054D01*
X89584Y563135D01*
X89539Y563214D01*
X89491Y563291D01*
X89439Y563366D01*
X89385Y563439D01*
X89328Y563510D01*
X89267Y563578D01*
X89204Y563643D01*
X89139Y563706D01*
X89071Y563767D01*
X89000Y563824D01*
X88927Y563878D01*
X88852Y563930D01*
X88775Y563978D01*
X88696Y564023D01*
X88615Y564064D01*
X88532Y564103D01*
X88448Y564137D01*
X88363Y564169D01*
X88276Y564196D01*
X88188Y564221D01*
X88100Y564241D01*
X88010Y564258D01*
X87920Y564271D01*
X87830Y564280D01*
X87739Y564286D01*
X87648Y564288D01*
X83979Y564288D01*
X77839Y564288D02*
X77839Y557684D01*
X77838Y557684D02*
X77836Y557593D01*
X77830Y557502D01*
X77821Y557412D01*
X77808Y557322D01*
X77791Y557232D01*
X77771Y557144D01*
X77746Y557056D01*
X77719Y556969D01*
X77687Y556884D01*
X77653Y556800D01*
X77614Y556717D01*
X77573Y556636D01*
X77528Y556557D01*
X77480Y556480D01*
X77428Y556405D01*
X77374Y556332D01*
X77317Y556261D01*
X77256Y556193D01*
X77193Y556128D01*
X77128Y556065D01*
X77060Y556004D01*
X76989Y555947D01*
X76916Y555893D01*
X76841Y555841D01*
X76764Y555793D01*
X76685Y555748D01*
X76604Y555707D01*
X76521Y555668D01*
X76437Y555634D01*
X76352Y555602D01*
X76265Y555575D01*
X76177Y555550D01*
X76089Y555530D01*
X75999Y555513D01*
X75909Y555500D01*
X75819Y555491D01*
X75728Y555485D01*
X75637Y555483D01*
X71969Y555483D01*
X71969Y564288D01*
X65217Y560619D02*
X61548Y559152D01*
X65217Y560619D02*
X65296Y560653D01*
X65374Y560691D01*
X65451Y560732D01*
X65525Y560776D01*
X65597Y560824D01*
X65667Y560875D01*
X65734Y560929D01*
X65799Y560986D01*
X65862Y561047D01*
X65921Y561109D01*
X65978Y561175D01*
X66031Y561243D01*
X66082Y561313D01*
X66129Y561386D01*
X66173Y561461D01*
X66213Y561537D01*
X66250Y561616D01*
X66283Y561695D01*
X66313Y561777D01*
X66339Y561859D01*
X66361Y561943D01*
X66379Y562028D01*
X66393Y562113D01*
X66404Y562199D01*
X66410Y562285D01*
X66413Y562372D01*
X66412Y562459D01*
X66406Y562545D01*
X66397Y562631D01*
X66384Y562717D01*
X66367Y562802D01*
X66346Y562886D01*
X66322Y562969D01*
X66293Y563050D01*
X66261Y563131D01*
X66226Y563210D01*
X66186Y563287D01*
X66144Y563362D01*
X66097Y563435D01*
X66048Y563507D01*
X65996Y563575D01*
X65940Y563642D01*
X65881Y563705D01*
X65820Y563766D01*
X65756Y563825D01*
X65689Y563880D01*
X65620Y563932D01*
X65548Y563981D01*
X65475Y564026D01*
X65399Y564068D01*
X65322Y564107D01*
X65243Y564142D01*
X65162Y564174D01*
X65080Y564202D01*
X64997Y564226D01*
X64913Y564246D01*
X64828Y564262D01*
X64742Y564275D01*
X64656Y564283D01*
X64569Y564288D01*
X64483Y564289D01*
X64483Y564288D02*
X64283Y564283D01*
X64083Y564273D01*
X63883Y564258D01*
X63683Y564238D01*
X63484Y564214D01*
X63286Y564184D01*
X63089Y564150D01*
X62892Y564112D01*
X62697Y564068D01*
X62502Y564020D01*
X62309Y563967D01*
X62117Y563910D01*
X61926Y563848D01*
X61737Y563781D01*
X61550Y563710D01*
X61365Y563634D01*
X61181Y563554D01*
X61547Y559152D02*
X61468Y559118D01*
X61390Y559080D01*
X61313Y559039D01*
X61239Y558995D01*
X61167Y558947D01*
X61097Y558896D01*
X61030Y558842D01*
X60965Y558785D01*
X60902Y558724D01*
X60843Y558662D01*
X60786Y558596D01*
X60733Y558528D01*
X60682Y558458D01*
X60635Y558385D01*
X60591Y558310D01*
X60551Y558234D01*
X60514Y558155D01*
X60481Y558076D01*
X60451Y557994D01*
X60425Y557912D01*
X60403Y557828D01*
X60385Y557743D01*
X60371Y557658D01*
X60360Y557572D01*
X60354Y557486D01*
X60351Y557399D01*
X60352Y557312D01*
X60358Y557226D01*
X60367Y557140D01*
X60380Y557054D01*
X60397Y556969D01*
X60418Y556885D01*
X60442Y556802D01*
X60471Y556721D01*
X60503Y556640D01*
X60538Y556561D01*
X60578Y556484D01*
X60620Y556409D01*
X60667Y556336D01*
X60716Y556264D01*
X60768Y556196D01*
X60824Y556129D01*
X60883Y556066D01*
X60944Y556005D01*
X61008Y555946D01*
X61075Y555891D01*
X61144Y555839D01*
X61216Y555790D01*
X61289Y555745D01*
X61365Y555703D01*
X61442Y555664D01*
X61521Y555629D01*
X61602Y555597D01*
X61684Y555569D01*
X61767Y555545D01*
X61851Y555525D01*
X61936Y555509D01*
X62022Y555496D01*
X62108Y555488D01*
X62195Y555483D01*
X62281Y555482D01*
X62282Y555483D02*
X62576Y555491D01*
X62870Y555506D01*
X63164Y555527D01*
X63457Y555556D01*
X63749Y555591D01*
X64040Y555634D01*
X64330Y555683D01*
X64619Y555739D01*
X64907Y555802D01*
X65193Y555871D01*
X65477Y555948D01*
X65759Y556031D01*
X66040Y556121D01*
X66318Y556217D01*
X56294Y564288D02*
X51891Y564288D01*
X54826Y568691D02*
X54826Y557684D01*
X54824Y557593D01*
X54818Y557502D01*
X54809Y557412D01*
X54796Y557322D01*
X54779Y557232D01*
X54759Y557144D01*
X54734Y557056D01*
X54707Y556969D01*
X54675Y556884D01*
X54641Y556800D01*
X54602Y556717D01*
X54561Y556636D01*
X54516Y556557D01*
X54468Y556480D01*
X54416Y556405D01*
X54362Y556332D01*
X54305Y556261D01*
X54244Y556193D01*
X54181Y556128D01*
X54116Y556065D01*
X54048Y556004D01*
X53977Y555947D01*
X53904Y555893D01*
X53829Y555841D01*
X53752Y555793D01*
X53673Y555748D01*
X53592Y555707D01*
X53509Y555668D01*
X53425Y555634D01*
X53340Y555602D01*
X53253Y555575D01*
X53165Y555550D01*
X53077Y555530D01*
X52987Y555513D01*
X52897Y555500D01*
X52807Y555491D01*
X52716Y555485D01*
X52625Y555483D01*
X51891Y555483D01*
X46618Y555483D02*
X46618Y564288D01*
X42215Y564288D01*
X42215Y562821D01*
X38581Y551080D02*
X37113Y551080D01*
X32710Y564288D01*
X38581Y564288D02*
X35646Y555483D01*
M02*
