G04 EAGLE Gerber RS-274X export*
G75*
%MOMM*%
%FSLAX34Y34*%
%LPD*%
%INSoldermask Bottom*%
%IPPOS*%
%AMOC8*
5,1,8,0,0,1.08239X$1,22.5*%
G01*
%ADD10C,2.184400*%
%ADD11C,1.524000*%
%ADD12P,1.649562X8X22.500000*%
%ADD13C,1.524000*%
%ADD14C,1.727200*%
%ADD15C,1.879600*%
%ADD16C,3.505200*%


D10*
X101346Y632206D02*
X101346Y612394D01*
X51308Y612394D02*
X51308Y632206D01*
X51054Y73406D02*
X51054Y53594D01*
X101092Y53594D02*
X101092Y73406D01*
D11*
X76200Y368300D03*
D12*
X127000Y368300D03*
X127000Y444500D03*
X76200Y444500D03*
D13*
X190500Y330200D02*
X190500Y316992D01*
X215900Y316992D02*
X215900Y330200D01*
X215900Y406400D02*
X215900Y419608D01*
X190500Y419608D02*
X190500Y406400D01*
X241300Y330200D02*
X241300Y316992D01*
X241300Y406400D02*
X241300Y419608D01*
X114300Y343408D02*
X114300Y330200D01*
X88900Y330200D02*
X88900Y343408D01*
X88900Y254000D02*
X88900Y240792D01*
X114300Y240792D02*
X114300Y254000D01*
D14*
X284480Y139700D02*
X299720Y139700D01*
X299720Y165100D02*
X284480Y165100D01*
X284480Y190500D02*
X299720Y190500D01*
X299720Y215900D02*
X284480Y215900D01*
X284480Y241300D02*
X299720Y241300D01*
X299720Y266700D02*
X284480Y266700D01*
X284480Y292100D02*
X299720Y292100D01*
D15*
X203200Y461518D02*
X203200Y478282D01*
X228600Y478282D02*
X228600Y461518D01*
X254000Y461518D02*
X254000Y478282D01*
D16*
X228600Y645160D03*
D10*
X178054Y73406D02*
X178054Y53594D01*
X228092Y53594D02*
X228092Y73406D01*
M02*
